<?xml version="1.0" standalone="no"?>
<!DOCTYPE svg PUBLIC "-//W3C//DTD SVG 20010904//EN"
 "http://www.w3.org/TR/2001/REC-SVG-20010904/DTD/svg10.dtd">
<svg className="logo-app" fill="#2e89ff" version="1.0" xmlns="http://www.w3.org/2000/svg"
 width="325.000000pt" height="325.000000pt" viewBox="0 0 325.000000 325.000000"
 preserveAspectRatio="xMidYMid meet">

<g transform="translate(0.000000,325.000000) scale(0.100000,-0.100000)"
fill="#2e89ff" stroke="none">
<path d="M1495 3244 c-250 -25 -472 -94 -668 -206 -428 -244 -715 -653 -803
-1143 -24 -137 -24 -403 0 -540 122 -681 636 -1201 1314 -1328 l32 -7 0 565 0
565 -207 2 -208 3 0 235 0 235 208 3 207 2 0 233 c0 270 10 332 70 453 97 197
294 304 558 304 82 0 232 -13 315 -26 l37 -6 0 -204 0 -204 -120 0 c-65 0
-142 -5 -169 -11 -68 -14 -123 -57 -152 -116 -22 -44 -24 -63 -27 -235 l-4
-188 226 0 c216 0 226 -1 226 -19 0 -19 -56 -397 -65 -438 -5 -23 -6 -23 -195
-23 l-190 0 0 -565 0 -564 33 6 c607 114 1101 559 1271 1144 44 154 60 271 60
454 0 448 -159 832 -473 1146 -243 243 -536 395 -871 453 -94 16 -328 28 -405
20z"/>
</g>
</svg>
